<?xml version="1.0" encoding="iso-8859-1"?>
<!-- Generator: Adobe Illustrator 16.0.0, SVG Export Plug-In . SVG Version: 6.00 Build 0)  -->
<!DOCTYPE svg PUBLIC "-//W3C//DTD SVG 1.1//EN" "http://www.w3.org/Graphics/SVG/1.1/DTD/svg11.dtd">
<svg version="1.1" id="Capa_1" xmlns="http://www.w3.org/2000/svg" xmlns:xlink="http://www.w3.org/1999/xlink" x="0px" y="0px"
	 width="61.76px" height="61.76px" viewBox="0 0 61.76 61.76" style="enable-background:new 0 0 61.76 61.76;" xml:space="preserve"
	>
<g>
	<g>
		<path d="M18.698,40.152c5.16,1.277,9.513,0.129,12.182-2.316c2.67,2.445,7.024,3.594,12.183,2.316
			c11.731-2.905,18.649,1.341,18.649,1.341c0.875-15.277-10.339-19.558-16.522-20.757c-1.135-0.276-2.338-0.431-3.589-0.457
			c-0.216-0.01-0.344-0.012-0.344-0.012c-4.301,0-8.096,1.6-10.377,4.039c-2.281-2.439-6.076-4.039-10.377-4.039
			c0,0-0.129,0.002-0.344,0.012c-1.25,0.025-2.454,0.182-3.588,0.457c-6.183,1.2-17.398,5.479-16.522,20.757
			C0.048,41.493,6.966,37.248,18.698,40.152z"/>
	</g>
</g>
<g>
</g>
<g>
</g>
<g>
</g>
<g>
</g>
<g>
</g>
<g>
</g>
<g>
</g>
<g>
</g>
<g>
</g>
<g>
</g>
<g>
</g>
<g>
</g>
<g>
</g>
<g>
</g>
<g>
</g>
</svg>
