<?xml version="1.0" encoding="iso-8859-1"?>
<!-- Generator: Adobe Illustrator 16.0.0, SVG Export Plug-In . SVG Version: 6.00 Build 0)  -->
<!DOCTYPE svg PUBLIC>
<svg version="1.1" id="Capa_1" xmlns="http://www.w3.org/2000/svg" xmlns:xlink="http://www.w3.org/1999/xlink" x="0px" y="0px"
	 width="59.051px" height="59.051px" viewBox="0 0 59.051 59.051" style="enable-background:new 0 0 59.051 59.051;"
	 xml:space="preserve">
<g>
	<g>
		<path d="M57.738,25.364c-3.177-5.778-12.697-8.907-15.812-9.796c-0.325-0.108-2.162-0.447-2.766-0.447
			c-2.865,0-6.833-0.062-9.636,0.864c-2.803-0.926-6.771-0.864-9.635-0.864c-0.604,0-2.439,0.339-2.767,0.447
			c-3.113,0.889-12.632,4.019-15.81,9.796c-3.82,6.945,1.909,1.216,1.909,1.216s-4.167,7.465-2.257,9.722
			c1.91,2.257,3.82-1.76,3.82-1.76s-2.951,6.937,1.042,8.86c3.993,1.926,2.083-1.893,8.159-3.976
			c4.107-1.409,11.302-6.148,15.539-11.593c4.234,5.444,11.431,10.184,15.538,11.593c6.076,2.083,4.167,5.902,8.16,3.976
			c3.992-1.925,1.041-8.86,1.041-8.86s1.91,4.017,3.82,1.76c1.909-2.258-2.258-9.722-2.258-9.722S61.558,32.308,57.738,25.364z"/>
	</g>
</g>
<g>
</g>
<g>
</g>
<g>
</g>
<g>
</g>
<g>
</g>
<g>
</g>
<g>
</g>
<g>
</g>
<g>
</g>
<g>
</g>
<g>
</g>
<g>
</g>
<g>
</g>
<g>
</g>
<g>
</g>
</svg>
