<?xml version="1.0" encoding="iso-8859-1"?>
<!-- Generator: Adobe Illustrator 17.1.0, SVG Export Plug-In . SVG Version: 6.00 Build 0)  -->
<!DOCTYPE svg PUBLIC "-//W3C//DTD SVG 1.1//EN" "http://www.w3.org/Graphics/SVG/1.1/DTD/svg11.dtd">
<svg xmlns="http://www.w3.org/2000/svg" xmlns:xlink="http://www.w3.org/1999/xlink" version="1.1" id="Capa_1" x="0px" y="0px" viewBox="0 0 271 271" style="enable-background:new 0 0 271 271;" xml:space="preserve" width="512px" height="512px">
<path d="M258.44,262.476L242.476,7.032C242.229,3.079,238.951,0,234.99,0h-199c-3.961,0-7.238,3.079-7.485,7.032l-16,256  c-0.129,2.066,0.602,4.094,2.02,5.603c1.417,1.51,3.396,2.365,5.466,2.365h231c0.008,0,0.015,0,0.02,0c4.143,0,7.5-3.357,7.5-7.5  C258.51,263.152,258.486,262.811,258.44,262.476z M177.319,31c-3.547,19.592-20.73,34.5-41.329,34.5S98.208,50.592,94.661,31  H177.319z" fill="#95a8ab"/>
<g>
</g>
<g>
</g>
<g>
</g>
<g>
</g>
<g>
</g>
<g>
</g>
<g>
</g>
<g>
</g>
<g>
</g>
<g>
</g>
<g>
</g>
<g>
</g>
<g>
</g>
<g>
</g>
<g>
</g>
</svg>
