<?xml version="1.0" encoding="iso-8859-1"?>
<!-- Generator: Adobe Illustrator 19.0.0, SVG Export Plug-In . SVG Version: 6.00 Build 0)  -->
<svg xmlns="http://www.w3.org/2000/svg" xmlns:xlink="http://www.w3.org/1999/xlink" version="1.1" id="Layer_1" x="0px" y="0px" viewBox="0 0 425.41 425.41" style="enable-background:new 0 0 425.41 425.41;" xml:space="preserve" width="512px" height="512px">
<g>
	<rect x="181.251" width="62.909" height="52.023" fill="#91DC5A"/>
	<path d="M263.185,147.443c-12.505-22.789-26.2-43.124-35.479-56.163v322.859c37.156-13.57,66.222-76.253,66.222-148.913   C293.927,214.181,277.21,173,263.185,147.443z" fill="#91DC5A"/>
	<path d="M131.483,265.226c0,72.66,29.066,135.343,66.222,148.913V91.287c-9.291,13.059-23.002,33.417-35.479,56.156   C148.201,173,131.483,214.181,131.483,265.226z" fill="#91DC5A"/>
	<path d="M131.676,390.559c-19.47-33.719-30.193-78.23-30.193-125.333c0-57.401,18.73-103.582,34.442-132.215   c10.864-19.797,22.423-37.638,31.62-50.988h-1.294v-3.538c-22.39,17.108-63.745,48.708-80.806,61.742   c-39.971,30.537-65.185,75.213-65.185,124.998c0,76.05,58.835,140.197,139.24,160.185   C149.245,416.427,139.864,404.74,131.676,390.559z" fill="#91DC5A"/>
	<path d="M339.965,140.227c-17.061-13.034-58.416-44.634-80.806-61.742v3.538h-1.294c9.197,13.349,20.757,31.191,31.62,50.988   c15.712,28.633,34.442,74.813,34.442,132.214c0,47.104-10.723,91.614-30.193,125.333c-8.188,14.181-17.569,25.868-27.824,34.851   c80.405-19.988,139.24-84.135,139.24-160.185C405.15,215.44,379.936,170.765,339.965,140.227z" fill="#91DC5A"/>
</g>
<g>
</g>
<g>
</g>
<g>
</g>
<g>
</g>
<g>
</g>
<g>
</g>
<g>
</g>
<g>
</g>
<g>
</g>
<g>
</g>
<g>
</g>
<g>
</g>
<g>
</g>
<g>
</g>
<g>
</g>
</svg>
