<?xml version="1.0" encoding="iso-8859-1"?>
<!-- Generator: Adobe Illustrator 19.0.0, SVG Export Plug-In . SVG Version: 6.00 Build 0)  -->
<svg xmlns="http://www.w3.org/2000/svg" xmlns:xlink="http://www.w3.org/1999/xlink" version="1.1" id="Layer_1" x="0px" y="0px" viewBox="0 0 476.213 476.213" style="enable-background:new 0 0 476.213 476.213;" xml:space="preserve" width="512px" height="512px">
<g>
	<path d="M117.237,192.804c-18.583,18.583-29.64,41.842-33.171,65.99l-18.97,131.11L0,455l21.213,21.213l65.095-65.095l131.11-18.97   c24.148-3.532,47.407-14.588,65.99-33.171c45.887-45.887,45.887-120.285,0-166.172   C237.521,146.917,163.124,146.917,117.237,192.804z" fill="#752121"/>
	<path d="M262.079,141.865c9.223,4.256,18.016,9.477,26.25,15.624c7.967-21.667,10.928-45.136,8.363-68.287   C292.973,55.634,277.731,23.955,253.776,0l-21.213,21.213C264.876,53.526,275.448,100.076,262.079,141.865z" fill="#752121"/>
	<path d="M304.622,171.591c3.566,3.566,6.924,7.285,10.074,11.138L427.542,69.884l-21.213-21.213L293.483,161.516   C297.336,164.667,301.055,168.025,304.622,171.591z" fill="#752121"/>
	<path d="M387.012,179.522c-23.148-2.565-46.619,0.396-68.287,8.363c6.146,8.233,11.368,17.027,15.624,26.25   c41.789-13.369,88.34-2.798,120.652,29.515l21.213-21.213C452.259,198.481,420.579,183.24,387.012,179.522z" fill="#752121"/>
</g>
<g>
</g>
<g>
</g>
<g>
</g>
<g>
</g>
<g>
</g>
<g>
</g>
<g>
</g>
<g>
</g>
<g>
</g>
<g>
</g>
<g>
</g>
<g>
</g>
<g>
</g>
<g>
</g>
<g>
</g>
</svg>
