<?xml version="1.0" encoding="iso-8859-1"?>
<!-- Generator: Adobe Illustrator 19.0.0, SVG Export Plug-In . SVG Version: 6.00 Build 0)  -->
<svg xmlns="http://www.w3.org/2000/svg" xmlns:xlink="http://www.w3.org/1999/xlink" version="1.1" id="Capa_1" x="0px" y="0px" viewBox="0 0 447 447" style="enable-background:new 0 0 447 447;" xml:space="preserve" width="512px" height="512px">
<g>
	<g>
		<path d="M103.5,0.5C46.339,0.5,0,50.42,0,112v243c0,61.58,46.339,91.5,103.5,91.5S207,416.58,207,355V112    C207,50.42,160.661,0.5,103.5,0.5z M170.269,263.239c-0.469,0.454-1.176,0.454-1.708-0.149    c-2.674-3.032-10.984-12.459-14.053-16.04c-0.369-0.43-0.696-1.145,0.26-2.252c3.496-4.051,14.24-17.39,14.24-40.799    c0-49.145-49.559-88.525-62.05-97.666h-6.905c-12.468,9.162-62.063,48.699-62.063,97.666c0,23.557,10.88,36.86,14.266,40.835    c0.993,1.165,0.457,1.878,0.076,2.312c-3.14,3.574-11.271,12.916-13.901,15.939c-0.528,0.607-1.375,0.48-2.035-0.173    c-4.857-4.81-22.405-24.57-22.405-58.912c0-60.207,55.724-105.239,71.551-116.813C83.925,82.902,83,78.544,83,75    c0-11.046,8.954-37,20-37s19.999,25.955,19.999,37.001c0,3.386-0.844,7.515-2.33,11.613    c14.664,10.588,72.339,56.134,72.339,117.386C193.009,239.185,174.588,259.063,170.269,263.239z" fill="#080b38"/>
		<path d="M343.5,0.5C286.339,0.5,240,50.42,240,112v243c0,61.58,46.339,91.5,103.5,91.5S447,416.58,447,355V112    C447,50.42,400.661,0.5,343.5,0.5z M410.269,263.239c-0.469,0.454-1.176,0.454-1.708-0.149    c-2.674-3.032-10.984-12.459-14.053-16.04c-0.369-0.43-0.696-1.145,0.26-2.252c3.496-4.051,14.24-17.39,14.24-40.799    c0-49.145-49.559-88.525-62.05-97.666h-6.905c-12.468,9.162-62.063,48.699-62.063,97.666c0,23.557,10.88,36.86,14.266,40.835    c0.993,1.165,0.457,1.878,0.076,2.312c-3.14,3.574-11.271,12.916-13.901,15.939c-0.528,0.607-1.375,0.48-2.035-0.173    c-4.857-4.81-22.405-24.57-22.405-58.912c0-60.207,55.724-105.239,71.551-116.813C323.926,82.902,323,78.544,323,75    c0-11.046,8.954-37,20-37s20,25.955,19.999,37.001c0,3.386-0.844,7.515-2.33,11.613c14.664,10.588,72.339,56.134,72.339,117.386    C433.009,239.185,414.588,259.063,410.269,263.239z" fill="#080b38"/>
	</g>
</g>
<g>
</g>
<g>
</g>
<g>
</g>
<g>
</g>
<g>
</g>
<g>
</g>
<g>
</g>
<g>
</g>
<g>
</g>
<g>
</g>
<g>
</g>
<g>
</g>
<g>
</g>
<g>
</g>
<g>
</g>
</svg>
